<svg width="223" height="70" viewBox="0 0 223 70" fill="none" xmlns="http://www.w3.org/2000/svg">
<path d="M216.031 69.6875H6.96875C3.13594 69.6875 0 66.5516 0 62.7188V6.96875C0 3.13594 3.13594 0 6.96875 0H216.031C219.864 0 223 3.13594 223 6.96875V62.7188C223 66.5516 219.864 69.6875 216.031 69.6875Z" fill="#334661"/>
<path d="M47.039 34.4952C47.039 29.0945 51.5687 26.4812 51.7429 26.3069C49.1297 22.6484 45.2968 22.1257 43.9031 21.9515C40.5929 21.603 37.2828 23.8679 35.7148 23.8679C33.9726 23.8679 31.3593 21.9515 28.5718 21.9515C24.9132 21.9515 21.6031 24.0421 19.6867 27.3523C15.8539 33.9726 18.6414 43.7288 22.3 49.1296C24.2164 51.7429 26.307 54.7046 29.0945 54.5304C31.882 54.3562 32.9273 52.7882 36.2375 52.7882C39.5476 52.7882 40.4187 54.5304 43.3804 54.5304C46.3422 54.5304 48.2586 51.9171 50.0007 49.3038C52.0914 46.3421 52.9625 43.3804 52.9625 43.2062C52.7882 43.032 47.039 40.9413 47.039 34.4952Z" fill="#EDFDFB"/>
<path d="M41.6383 18.4673C43.032 16.5509 44.0774 14.1118 43.9031 11.4985C41.8125 11.6728 39.025 12.8923 37.6313 14.8087C36.2375 16.3767 35.018 18.9899 35.3664 21.429C37.6313 21.6032 40.0703 20.2095 41.6383 18.4673Z" fill="#EDFDFB"/>
<path d="M86.7609 54.182H82.9281L80.8375 47.5617H73.5203L71.6039 54.182H67.9453L75.2625 31.7078H79.7922L86.7609 54.182ZM80.1406 44.7742L78.2242 38.8507C78.05 38.3281 77.7016 36.7601 77.0047 34.6695C76.8305 35.5406 76.482 37.1085 75.9594 38.8507L74.043 44.7742H80.1406Z" fill="#EDFDFB"/>
<path d="M105.402 45.9937C105.402 48.7812 104.705 50.8718 103.138 52.614C101.744 54.0078 100.176 54.7046 98.0852 54.7046C95.9945 54.7046 94.4266 54.0078 93.5555 52.4398V60.9765H89.8969V43.5546C89.8969 41.8125 89.8969 40.0703 89.7227 38.1539H92.8586L93.0328 40.7671C94.2523 38.8507 95.9945 37.8054 98.4336 37.8054C100.35 37.8054 101.918 38.5023 103.138 40.0703C104.705 41.464 105.402 43.3804 105.402 45.9937ZM101.744 45.9937C101.744 44.4257 101.395 43.032 100.698 42.1609C100.002 41.1156 98.9563 40.5929 97.5625 40.5929C96.6914 40.5929 95.8203 40.9414 95.1234 41.464C94.4266 41.9867 93.9039 42.8578 93.7297 43.7289C93.5555 44.2515 93.5555 44.6 93.5555 44.7742V47.5617C93.5555 48.7812 93.9039 49.6523 94.6008 50.5234C95.2977 51.3945 96.343 51.7429 97.3883 51.7429C98.782 51.7429 99.8274 51.2203 100.524 50.175C101.395 49.1296 101.744 47.7359 101.744 45.9937Z" fill="#EDFDFB"/>
<path d="M124.044 45.9937C124.044 48.7812 123.347 50.8718 121.779 52.614C120.385 54.0078 118.817 54.7046 116.727 54.7046C114.636 54.7046 113.068 54.0078 112.197 52.4398V60.9765H108.538V43.5546C108.538 41.8125 108.538 40.0703 108.364 38.1539H111.5L111.674 40.7671C112.894 38.8507 114.636 37.8054 117.075 37.8054C118.991 37.8054 120.559 38.5023 121.779 40.0703C123.347 41.464 124.044 43.3804 124.044 45.9937ZM120.385 45.9937C120.385 44.4257 120.037 43.032 119.34 42.1609C118.643 41.1156 117.598 40.5929 116.204 40.5929C115.333 40.5929 114.462 40.9414 113.765 41.464C113.068 41.9867 112.545 42.8578 112.371 43.7289C112.197 44.2515 112.197 44.6 112.197 44.7742V47.5617C112.197 48.7812 112.545 49.6523 113.242 50.5234C113.939 51.3945 114.984 51.7429 116.03 51.7429C117.423 51.7429 118.469 51.2203 119.166 50.175C120.037 49.1296 120.385 47.7359 120.385 45.9937Z" fill="#EDFDFB"/>
<path d="M144.95 47.9103C144.95 49.8267 144.253 51.3946 143.034 52.6142C141.64 54.0079 139.549 54.5306 136.936 54.5306C134.497 54.5306 132.581 54.0079 131.187 53.1368L132.058 50.1751C133.626 51.0462 135.368 51.5689 137.284 51.5689C138.678 51.5689 139.723 51.2204 140.42 50.6978C141.117 50.0009 141.466 49.304 141.466 48.2587C141.466 47.3876 141.117 46.5165 140.595 45.9939C139.898 45.297 138.852 44.7743 137.459 44.2517C133.452 42.8579 131.535 40.5931 131.535 37.8056C131.535 35.8892 132.232 34.4954 133.626 33.2759C135.02 32.0563 136.762 31.5337 139.201 31.5337C141.291 31.5337 142.859 31.8821 144.253 32.579L143.382 35.5407C142.163 34.8439 140.769 34.4954 139.027 34.4954C137.807 34.4954 136.762 34.8438 136.065 35.3665C135.542 35.8892 135.194 36.586 135.194 37.4571C135.194 38.3282 135.542 39.0251 136.239 39.722C136.762 40.2446 137.981 40.7673 139.549 41.4642C141.466 42.161 142.859 43.2064 143.905 44.2517C144.427 45.1228 144.95 46.3423 144.95 47.9103Z" fill="#EDFDFB"/>
<path d="M156.797 40.7672H152.79V48.607C152.79 50.5234 153.487 51.5688 154.881 51.5688C155.577 51.5688 156.1 51.5688 156.448 51.3945L156.623 54.182C155.926 54.5305 155.055 54.5305 153.835 54.5305C152.441 54.5305 151.222 54.182 150.525 53.3109C149.654 52.4398 149.306 51.0461 149.306 48.9555V40.7672H146.866V37.9797H149.306V35.018L152.79 33.9727V37.9797H156.797V40.7672Z" fill="#EDFDFB"/>
<path d="M174.741 45.9939C174.741 48.4329 174.044 50.5235 172.651 52.0915C171.083 53.6595 169.166 54.5306 166.727 54.5306C164.288 54.5306 162.372 53.6595 160.978 52.0915C159.584 50.5235 158.887 48.6071 158.887 46.1681C158.887 43.729 159.584 41.6384 161.152 40.0704C162.546 38.5024 164.637 37.6313 167.076 37.6313C169.515 37.6313 171.431 38.5024 172.825 40.0704C174.044 41.6384 174.741 43.5548 174.741 45.9939ZM170.909 46.1681C170.909 44.6001 170.56 43.3806 169.863 42.3353C169.166 41.1157 167.947 40.4189 166.553 40.4189C165.159 40.4189 163.94 41.1157 163.243 42.3353C162.546 43.3806 162.198 44.7743 162.198 46.1681C162.198 47.736 162.546 48.9556 163.243 50.0009C163.94 51.2204 165.159 51.9173 166.553 51.9173C167.947 51.9173 168.992 51.2204 169.863 50.0009C170.56 48.9556 170.909 47.5618 170.909 46.1681Z" fill="#EDFDFB"/>
<path d="M186.414 41.1156C186.066 41.1156 185.717 40.9414 185.194 40.9414C183.975 40.9414 182.93 41.4641 182.233 42.3352C181.71 43.2062 181.362 44.2516 181.362 45.4711V54.0078H177.703V42.8578C177.703 40.9414 177.703 39.3734 177.529 37.8055H180.665L180.839 40.9414H181.013C181.362 39.8961 182.058 39.025 182.755 38.3281C183.626 37.8055 184.498 37.457 185.369 37.457C185.717 37.457 186.066 37.457 186.24 37.457V41.1156H186.414Z" fill="#EDFDFB"/>
<path d="M202.442 45.297C202.442 45.9939 202.442 46.5165 202.268 46.8649H191.466C191.466 48.4329 191.989 49.6524 193.034 50.5235C193.905 51.2204 195.125 51.7431 196.519 51.7431C198.087 51.7431 199.655 51.5689 200.874 51.0462L201.397 53.4853C199.829 54.1821 198.087 54.5306 195.996 54.5306C193.557 54.5306 191.466 53.8337 190.073 52.2657C188.679 50.872 187.982 48.7813 187.982 46.3423C187.982 43.9032 188.679 41.8126 189.898 40.2446C191.292 38.5024 193.208 37.6313 195.648 37.6313C197.912 37.6313 199.829 38.5024 200.874 40.2446C202.094 41.6384 202.442 43.3806 202.442 45.297ZM199.132 44.4259C199.132 43.3806 198.958 42.5095 198.435 41.6384C197.738 40.5931 196.867 40.0704 195.648 40.0704C194.428 40.0704 193.557 40.5931 192.86 41.4642C192.337 42.161 191.989 43.2064 191.815 44.2517H199.132V44.4259Z" fill="#EDFDFB"/>
<path d="M79.0953 17.9446C79.0953 19.861 78.5726 21.429 77.3531 22.4743C76.3078 23.3454 74.7398 23.868 72.6492 23.868C71.6039 23.868 70.7328 23.868 70.0359 23.6938V12.8922C70.907 12.718 71.9523 12.718 73.1718 12.718C75.0882 12.718 76.482 13.0665 77.5273 13.9376C78.3984 14.8086 79.0953 16.2024 79.0953 17.9446ZM77.1789 17.9446C77.1789 16.7251 76.8304 15.6797 76.1335 14.9829C75.4367 14.286 74.3913 13.9376 73.1718 13.9376C72.6492 13.9376 72.1265 13.9376 71.7781 14.1118V22.3001C71.9523 22.3001 72.4749 22.3001 72.9976 22.3001C74.3913 22.3001 75.4367 21.9516 76.1335 21.2547C76.8304 20.5579 77.1789 19.3383 77.1789 17.9446Z" fill="#EDFDFB"/>
<path d="M88.8516 19.6866C88.8516 20.9062 88.5031 21.9515 87.8063 22.6483C87.1094 23.5194 86.0641 23.8679 84.8445 23.8679C83.625 23.8679 82.7539 23.5194 82.057 22.6483C81.3602 21.9515 81.0117 20.9062 81.0117 19.6866C81.0117 18.4671 81.3602 17.4218 82.057 16.7249C82.7539 15.8538 83.7992 15.5054 85.0188 15.5054C86.2383 15.5054 87.1094 15.8538 87.8063 16.7249C88.5031 17.4218 88.8516 18.4671 88.8516 19.6866ZM87.1094 19.6866C87.1094 18.9897 86.9352 18.2929 86.5867 17.7702C86.2383 17.0733 85.7156 16.8991 85.0188 16.8991C84.3219 16.8991 83.7992 17.2476 83.4508 17.7702C83.1023 18.2929 82.9281 18.9897 82.9281 19.6866C82.9281 20.3835 83.1023 21.0804 83.4508 21.603C83.7992 22.2999 84.3219 22.4741 85.0188 22.4741C85.7156 22.4741 86.2383 22.1257 86.5867 21.4288C86.9352 21.0804 87.1094 20.3835 87.1094 19.6866Z" fill="#EDFDFB"/>
<path d="M102.266 15.6797L99.8274 23.6937H98.2594L97.2141 20.2094C96.8656 19.3383 96.6914 18.4672 96.5172 17.5961C96.343 18.4672 96.1688 19.3383 95.8203 20.2094L94.775 23.6937H93.207L90.5938 15.6797H92.3359L93.207 19.5125C93.3813 20.3836 93.5555 21.2547 93.7297 22.1258C93.9039 21.4289 94.0781 20.5578 94.4266 19.5125L95.4719 15.6797H96.8656L97.9109 19.3383C98.2594 20.2094 98.4336 21.0805 98.6078 21.9516C98.782 21.0805 98.9563 20.2094 99.1305 19.3383L100.176 15.6797H102.266Z" fill="#EDFDFB"/>
<path d="M111.326 23.6938H109.584V19.1641C109.584 17.7704 109.061 17.0735 108.016 17.0735C107.493 17.0735 107.145 17.2477 106.796 17.5961C106.448 17.9446 106.273 18.4672 106.273 18.9899V23.6938H104.531V17.9446C104.531 17.2477 104.531 16.5508 104.531 15.6797H106.099V16.8993C106.273 16.5508 106.622 16.2024 106.97 15.854C107.493 15.5055 108.016 15.3313 108.538 15.3313C109.235 15.3313 109.932 15.5055 110.455 16.0282C111.152 16.5508 111.326 17.4219 111.326 18.6415V23.6938Z" fill="#EDFDFB"/>
<path d="M116.204 23.6936H114.462V12.021H116.204V23.6936Z" fill="#EDFDFB"/>
<path d="M126.657 19.6866C126.657 20.9062 126.309 21.9515 125.612 22.6483C124.915 23.5194 123.869 23.8679 122.65 23.8679C121.43 23.8679 120.559 23.5194 119.862 22.6483C119.166 21.9515 118.817 20.9062 118.817 19.6866C118.817 18.4671 119.166 17.4218 119.862 16.7249C120.559 16.028 121.605 15.5054 122.824 15.5054C124.044 15.5054 124.915 15.8538 125.612 16.7249C126.309 17.4218 126.657 18.4671 126.657 19.6866ZM124.915 19.6866C124.915 18.9897 124.741 18.2929 124.392 17.7702C124.044 17.0733 123.521 16.8991 122.824 16.8991C122.127 16.8991 121.605 17.2476 121.256 17.7702C120.908 18.2929 120.734 18.9897 120.734 19.6866C120.734 20.3835 120.908 21.0804 121.256 21.603C121.605 22.2999 122.127 22.4741 122.824 22.4741C123.521 22.4741 124.044 22.1257 124.392 21.4288C124.741 21.0804 124.915 20.3835 124.915 19.6866Z" fill="#EDFDFB"/>
<path d="M135.194 23.6937H133.626L133.451 22.8226C132.929 23.5194 132.058 23.8679 131.187 23.8679C130.49 23.8679 129.793 23.6937 129.444 23.171C129.096 22.6483 128.748 22.1257 128.748 21.603C128.748 20.5577 129.096 19.8608 129.967 19.3382C130.838 18.8155 131.884 18.6413 133.451 18.6413V18.4671C133.451 17.4218 132.929 16.8991 131.884 16.8991C131.012 16.8991 130.49 17.0733 129.793 17.4218L129.444 16.2022C130.141 15.6796 131.012 15.5054 132.232 15.5054C134.323 15.5054 135.368 16.5507 135.368 18.8155V21.7772C135.194 22.6483 135.194 23.171 135.194 23.6937ZM133.451 20.9062V19.6866C131.535 19.6866 130.49 20.2093 130.49 21.2546C130.49 21.603 130.664 21.9515 130.838 22.1257C131.012 22.2999 131.361 22.4741 131.709 22.4741C132.058 22.4741 132.406 22.2999 132.755 22.1257C133.103 21.9515 133.277 21.603 133.451 21.2546C133.451 21.2546 133.451 21.0804 133.451 20.9062Z" fill="#EDFDFB"/>
<path d="M145.299 23.6938H143.731V22.4742C143.208 23.5195 142.337 23.868 141.117 23.868C140.072 23.868 139.375 23.5195 138.678 22.8227C137.981 22.1258 137.807 21.0805 137.807 19.8609C137.807 18.6414 138.156 17.5961 138.852 16.725C139.549 16.0281 140.42 15.6797 141.292 15.6797C142.337 15.6797 143.034 16.0281 143.556 16.725V12.1953H145.299V21.6031C145.299 22.3 145.299 22.9969 145.299 23.6938ZM143.556 20.3836V18.9898C143.556 18.8156 143.556 18.6414 143.556 18.4672C143.382 18.1188 143.208 17.7703 142.859 17.4219C142.511 17.0734 142.163 17.0734 141.64 17.0734C140.943 17.0734 140.42 17.4219 140.072 17.9445C139.724 18.4672 139.549 19.1641 139.549 20.0352C139.549 20.9063 139.724 21.4289 140.072 21.9516C140.42 22.4742 140.943 22.8227 141.64 22.8227C142.163 22.8227 142.685 22.6484 143.034 22.1258C143.382 21.4289 143.556 20.9063 143.556 20.3836Z" fill="#EDFDFB"/>
<path d="M160.456 19.6866C160.456 20.9062 160.107 21.9515 159.41 22.6483C158.713 23.5194 157.668 23.8679 156.449 23.8679C155.229 23.8679 154.358 23.5194 153.661 22.6483C152.964 21.9515 152.616 20.9062 152.616 19.6866C152.616 18.4671 152.964 17.4218 153.661 16.7249C154.358 15.8538 155.403 15.5054 156.623 15.5054C157.842 15.5054 158.713 15.8538 159.41 16.7249C160.107 17.4218 160.456 18.4671 160.456 19.6866ZM158.539 19.6866C158.539 18.9897 158.365 18.2929 158.016 17.7702C157.668 17.0733 157.145 16.8991 156.449 16.8991C155.752 16.8991 155.229 17.2476 154.881 17.7702C154.532 18.2929 154.358 18.9897 154.358 19.6866C154.358 20.3835 154.532 21.0804 154.881 21.603C155.229 22.2999 155.752 22.4741 156.449 22.4741C157.145 22.4741 157.668 22.1257 158.016 21.4288C158.365 21.0804 158.539 20.3835 158.539 19.6866Z" fill="#EDFDFB"/>
<path d="M170.037 23.6938H168.295V19.1641C168.295 17.7704 167.773 17.0735 166.727 17.0735C166.205 17.0735 165.856 17.2477 165.508 17.5961C165.159 17.9446 164.985 18.4672 164.985 18.9899V23.6938H163.243V17.9446C163.243 17.2477 163.243 16.5508 163.243 15.6797H164.811V16.8993C164.985 16.5508 165.334 16.2024 165.682 15.854C166.205 15.5055 166.727 15.3313 167.25 15.3313C167.947 15.3313 168.644 15.5055 169.166 16.0282C169.863 16.5508 170.037 17.4219 170.037 18.6415V23.6938Z" fill="#EDFDFB"/>
<path d="M181.884 17.0733H179.968V20.9062C179.968 21.9515 180.316 22.2999 181.013 22.2999C181.362 22.2999 181.536 22.2999 181.884 22.2999V23.6937C181.536 23.8679 181.013 23.8679 180.491 23.8679C179.794 23.8679 179.271 23.6937 178.923 23.171C178.574 22.8226 178.4 21.9515 178.4 21.0804V17.0733H177.18V15.6796H178.4V14.2858L180.142 13.7632V15.6796H182.059V17.0733H181.884Z" fill="#EDFDFB"/>
<path d="M191.292 23.6936H189.55V19.164C189.55 17.7702 189.027 17.0733 187.982 17.0733C187.111 17.0733 186.588 17.4218 186.24 18.2929C186.24 18.4671 186.24 18.6413 186.24 18.9897V23.6936H184.498V12.021H186.24V16.8991C186.762 16.028 187.633 15.5054 188.679 15.5054C189.376 15.5054 190.073 15.6796 190.421 16.2022C190.944 16.7249 191.292 17.7702 191.292 18.8155V23.6936Z" fill="#EDFDFB"/>
<path d="M200.874 19.3383C200.874 19.6867 200.874 19.8609 200.874 20.2094H195.648C195.648 21.0805 195.996 21.6031 196.345 21.9516C196.867 22.3 197.39 22.4742 198.087 22.4742C198.958 22.4742 199.655 22.3 200.177 22.1258L200.526 23.3453C199.829 23.6938 198.958 23.868 197.913 23.868C196.693 23.868 195.648 23.5195 194.951 22.8227C194.254 22.1258 193.906 21.0805 193.906 19.8609C193.906 18.6414 194.254 17.5961 194.951 16.8992C195.648 16.0281 196.519 15.6797 197.738 15.6797C198.958 15.6797 199.829 16.0281 200.352 16.8992C200.7 17.4219 200.874 18.293 200.874 19.3383ZM199.306 18.8156C199.306 18.293 199.132 17.7703 198.958 17.4219C198.609 16.8992 198.261 16.725 197.564 16.725C197.041 16.725 196.519 16.8992 196.17 17.4219C195.822 17.7703 195.648 18.293 195.648 18.8156H199.306Z" fill="#EDFDFB"/>
</svg>
