<svg width="393" height="49" viewBox="0 0 393 49" fill="none" xmlns="http://www.w3.org/2000/svg">
<path d="M36.3053 42.6102C36.3053 40.6507 37.8779 39.0807 39.8397 39.0807C41.7986 39.0807 43.3681 40.6507 43.3681 42.6102C43.3697 43.0743 43.2795 43.5342 43.1028 43.9633C42.9261 44.3924 42.6663 44.7824 42.3384 45.1107C42.0105 45.439 41.6209 45.6992 41.1921 45.8763C40.7633 46.0535 40.3037 46.144 39.8397 46.1428C39.3756 46.1449 38.9155 46.055 38.4862 45.8784C38.0569 45.7018 37.6667 45.442 37.3382 45.1139C37.0097 44.7858 36.7493 44.396 36.572 43.9668C36.3948 43.5377 36.3041 43.0776 36.3053 42.6133V42.6102ZM50.6742 42.6133C50.6742 40.6507 52.2467 39.0776 54.2055 39.0776C56.1644 39.0776 57.7369 40.6507 57.7369 42.6102C57.7369 44.5698 56.1644 46.1428 54.2086 46.1428C53.7444 46.1449 53.2844 46.055 52.8551 45.8784C52.4257 45.7018 52.0356 45.442 51.7071 45.1139C51.3785 44.7858 51.1181 44.396 50.9409 43.9668C50.7636 43.5377 50.673 43.0776 50.6742 42.6133V42.6133ZM17.3679 42.6133C17.3679 40.6507 18.9405 39.0776 20.8993 39.0776C22.8581 39.0776 24.4276 40.6507 24.4276 42.6102C24.4276 44.5698 22.8581 46.1428 20.8993 46.1428C20.4354 46.1444 19.9757 46.0543 19.5467 45.8775C19.1177 45.7007 18.7279 45.4409 18.3997 45.1128C18.0715 44.7848 17.8114 44.3951 17.6343 43.9661C17.4573 43.5372 17.3667 43.0774 17.3679 42.6133V42.6133ZM2.99908 42.6133C2.99908 40.6507 4.57163 39.0776 6.53046 39.0776C8.48929 39.0776 10.0618 40.6507 10.0618 42.6102C10.0634 43.0746 9.9732 43.5347 9.7963 43.964C9.6194 44.3933 9.35934 44.7834 9.0311 45.1118C8.70286 45.4401 8.31293 45.7003 7.88376 45.8772C7.45459 46.0542 6.99466 46.1445 6.53046 46.1428C6.06677 46.144 5.60742 46.0536 5.1788 45.8766C4.75018 45.6997 4.36074 45.4397 4.03287 45.1117C3.70499 44.7838 3.44514 44.3942 3.26825 43.9654C3.09136 43.5366 3.00092 43.0771 3.00213 42.6133H2.99908ZM32.05 36.3696H28.978V48.7322H32.05V36.3696ZM10.0375 48.7322H13.1096V36.3696H10.0375V37.3615C8.96664 36.616 7.69216 36.2187 6.3875 36.2236C2.85308 36.2236 0 39.0776 0 42.6133C0 46.1672 2.85308 49 6.3875 49C7.74104 49 8.99725 48.5892 10.0375 47.862V48.7322V48.7322ZM57.7126 48.7322H60.7847V36.3696H57.7126V37.3615C56.6417 36.616 55.3672 36.2187 54.0626 36.2236C50.5282 36.2236 47.6751 39.0776 47.6751 42.6133C47.6723 43.453 47.8356 44.2851 48.1556 45.0614C48.4757 45.8377 48.9461 46.543 49.5398 47.1367C50.1336 47.7304 50.8389 48.2006 51.6151 48.5204C52.3913 48.8402 53.2231 49.0032 54.0626 49C55.4161 49 56.6723 48.5892 57.7126 47.862V48.7322V48.7322ZM61.9223 44.7158C62.0196 47.2108 64.1487 48.9756 67.7014 48.9756C70.6062 48.9756 73 47.7159 73 44.9349C73 42.9997 71.9111 41.8617 69.3956 41.3749L67.4368 40.9915C66.1775 40.7481 65.3076 40.5047 65.3076 39.7562C65.3076 38.9346 66.1532 38.5695 67.2178 38.5695C68.769 38.5695 69.3956 39.3454 69.4443 40.2643H72.5407C72.3704 37.8453 70.4359 36.2236 67.3151 36.2236C64.1001 36.2236 62.1869 37.9883 62.1869 40.2886C62.1869 43.094 64.462 43.5535 66.4209 43.9186L68.0421 44.2077C69.204 44.4267 69.712 44.7645 69.712 45.443C69.712 46.0485 69.131 46.651 67.7501 46.651C65.7426 46.651 65.0917 45.6104 65.0673 44.7158H61.9223V44.7158ZM24.4063 32.1585V37.3615C23.3355 36.616 22.061 36.2187 20.7563 36.2236C17.2219 36.2236 14.3688 39.0776 14.3688 42.6133C14.3688 46.1672 17.2219 49 20.7563 49C22.1068 49 23.3661 48.5892 24.4063 47.862V48.7322H27.4784V32.1585H24.4063V32.1585ZM43.3438 32.1585V37.3615C42.2729 36.616 40.9984 36.2187 39.6938 36.2236C36.1624 36.2236 33.3063 39.0776 33.3063 42.6133C33.3034 43.453 33.4668 44.2851 33.7868 45.0614C34.1068 45.8377 34.5773 46.543 35.171 47.1367C35.7648 47.7304 36.47 48.2006 37.2463 48.5204C38.0225 48.8402 38.8543 49.0032 39.6938 49C41.0473 49 42.3035 48.5892 43.3438 47.862V48.7322H46.4158V32.1585H43.3438V32.1585ZM7.98133 28.5072L10.0618 32.1585H24.4063L18.7215 22.3336L7.98438 28.5042L7.98133 28.5072ZM32.05 35.2316V32.1585H43.3438L31.2988 11.3007L20.5343 17.4713L28.978 32.1585V35.2316H32.05V35.2316ZM47.9184 32.1585H62.2842L43.7088 0L32.9686 6.19498L47.9184 32.1585V32.1585Z" fill="#334661"/>
<path d="M195 12L142.326 34.2474C137.958 36.0805 134.289 37 131.322 37C127.961 37 125.522 35.8335 124.01 33.4974C123.059 31.9976 122.78 30.0961 123.17 27.7898C123.56 25.4835 124.598 23.0284 126.278 20.4157C127.679 18.3028 129.974 15.5264 133.17 12.0833C132.086 13.7756 131.291 15.6337 130.818 17.5827C129.977 21.1388 130.734 23.7486 133.086 25.4151C134.205 26.1918 135.744 26.5816 137.706 26.5816C139.272 26.5816 141.036 26.3316 142.998 25.8317L195 12Z" fill="#334661"/>
<g clip-path="url(#clip0_94_6)">
<path d="M293.684 6.14135C292.832 5.05314 291.344 5.92493 290.688 6.30468C286.025 9.05276 285.337 13.8915 283.712 16.6702C282.434 18.8956 280.339 20.529 278.445 20.6556C277.044 20.7556 275.525 20.4841 274.018 19.8287C270.329 18.2341 268.342 16.17 267.859 15.8066C266.864 15.0512 259.222 7.60931 252.995 7.3051C252.995 7.3051 252.236 5.77385 252.046 5.74731C251.593 5.69626 251.127 6.6681 250.788 6.77018C250.482 6.87839 249.945 5.72485 249.635 5.77589C249.322 5.81672 249.018 6.97231 248.41 7.56643C247.96 8.00131 247.417 7.97476 247.109 8.51172C247.003 8.70772 247.04 9.05276 246.919 9.36922C246.66 10.0226 245.794 10.092 245.786 10.7923C245.786 11.5701 246.515 11.7192 247.152 12.2623C247.658 12.6951 247.693 13.0013 248.283 13.2035C248.81 13.3831 249.573 12.8217 250.251 13.0238C250.817 13.1892 251.36 13.3096 251.48 13.8874C251.591 14.4101 251.48 15.2308 250.786 15.139C250.557 15.1083 249.565 14.7837 248.34 14.9144C246.86 15.0716 245.17 15.5453 245.004 17.1806C244.92 18.0933 246.054 19.1611 247.158 18.9487C247.916 18.8038 247.558 17.9156 247.973 17.4869C248.518 16.9356 251.591 19.4142 254.449 19.4142C255.66 19.4142 256.554 19.108 257.444 18.179C257.526 18.1198 257.634 17.9708 257.76 17.9544C257.902 17.9913 258.037 18.052 258.159 18.1341C260.468 19.9655 262.209 23.6466 270.674 23.6895C271.862 23.7038 273.226 24.2591 274.341 25.2758C275.321 26.1599 275.901 27.5727 276.458 29.0019C277.311 31.1518 278.828 33.2261 281.138 35.5413C281.26 35.6802 283.159 37.1338 283.302 37.2421C283.326 37.2625 283.473 37.583 283.41 37.7627C283.369 39.1714 283.159 43.2139 286.197 43.3834C286.944 43.4242 286.758 42.9118 286.758 42.5463C286.748 41.8501 286.626 41.1478 286.989 40.423C287.506 39.4471 285.915 38.9754 285.95 36.8378C285.989 35.2371 284.633 35.5087 283.941 34.2857C283.553 33.5854 283.189 33.1996 283.226 32.3543C283.375 27.4951 282.171 24.2938 281.583 23.52C281.119 22.9198 280.719 22.6972 281.16 22.4175C283.692 20.7536 284.274 19.2039 284.274 19.2039C285.621 16.0577 286.838 13.1912 288.51 11.9152C288.849 11.6702 289.713 11.0168 290.25 10.7718C291.807 10.0328 292.644 9.59176 293.083 9.16301C293.81 8.47497 294.38 7.01314 293.684 6.14135V6.14135Z" fill="#334661"/>
</g>
<path d="M371.665 3.98164V3.82471C371.665 3.09238 371.895 2.43746 372.355 1.86206C372.814 1.28666 373.4 1 374.115 1C374.829 1 375.468 1.23435 376.03 1.70513C376.591 2.17592 376.897 2.80363 376.948 3.58827C376.999 4.37291 376.769 5.02782 376.258 5.55092C375.748 6.07401 375.135 6.33556 374.421 6.33556L373.961 6.49249L374.115 6.72683L373.961 7.59098L373.655 10.1018C373.757 10.2065 373.808 10.3111 373.808 10.4157L373.502 11.985C373.4 12.1942 373.298 12.3511 373.196 12.4558L373.043 13.0835C372.775 14.193 372.469 15.2922 372.124 16.379V16.6928C372.022 17.2159 371.946 17.6344 371.895 17.9482C371.844 18.2621 371.665 18.7852 371.358 19.5175C371.154 19.936 371.154 20.616 371.358 21.5576L371.511 21.7145C371.511 22.0284 371.64 22.3945 371.895 22.813C372.151 23.2315 372.277 23.5977 372.277 23.9115C372.379 26.0039 372.226 27.7824 371.818 29.2471L372.124 30.1886C373.349 30.8164 373.706 31.4964 373.196 32.2287L373.961 32.5426C375.186 33.1703 376.054 33.7185 376.565 34.1893C377.075 34.6601 377.585 35.158 378.096 35.6811C378.504 35.7858 378.81 35.9427 379.015 36.1519L379.474 36.3088C381.618 37.7735 383.761 39.552 385.905 41.6444L386.518 42.1152V42.2721L386.365 42.586L386.824 42.8998H386.977C387.283 43.1091 387.488 43.2137 387.59 43.2137H387.743C387.845 43.2137 387.947 43.1614 388.049 43.0568L388.355 42.8998C388.559 42.6906 388.764 42.5337 388.968 42.4291H389.58C389.682 42.4291 389.682 42.4814 389.58 42.586L388.968 42.8998L388.202 43.8414H389.274L390.346 43.9983C390.652 43.8937 390.907 43.7891 391.111 43.6845L391.877 43.2137C392.183 43.1091 392.49 43.2137 392.796 43.5275H392.949C393.051 43.6322 393 43.7891 392.796 43.9983L390.958 45.7245C390.448 46.143 389.989 46.4046 389.58 46.5092L387.59 47.9215C387.488 48.0262 387.385 48.0262 387.283 47.9215L386.824 47.2938L386.518 46.6661L386.134 46.1158L385.675 45.4881L385.293 45.0173L384.986 44.626L384.374 44.1553C384.17 44.1553 383.966 44.103 383.761 43.9983L381.771 42.4291C381.465 42.4291 381.107 42.2721 380.699 41.9583C379.168 40.5982 378.147 39.7613 377.636 39.4474L376.718 38.8197L374.88 38.5058C374.268 38.4012 373.451 38.0874 372.43 37.5643L371.205 36.9366C370.389 36.5181 369.827 36.3088 369.521 36.3088L368.908 35.995C368.5 35.8904 368.194 35.7858 367.99 35.6811L367.683 35.3673C367.479 35.3673 367.275 35.4196 367.071 35.5242L364.008 37.0935L360.18 38.8197C359.159 39.6567 358.19 40.3367 357.271 40.8598L355.586 41.6444L352.983 43.5275C352.779 43.7368 352.575 43.7368 352.371 43.5275L352.065 43.8414C351.758 43.946 351.554 43.9983 351.452 43.9983L350.84 44.3122V44.626H350.533L350.227 45.0968C350.023 45.5153 349.819 45.7497 349.615 45.802C349.41 45.8543 349.284 45.9338 349.233 46.0384C349.194 46.1242 349.142 46.2033 349.08 46.2727L348.773 46.5866L348.314 46.9005L347.624 46.823L346.705 46.98L346.093 47.1369C345.582 47.2415 345.174 47.162 344.868 46.9005C344.561 46.6389 344.306 46.2476 344.102 45.7245C343.898 45.4107 344 45.1491 344.408 44.9399L344.561 44.783C344.664 44.6784 344.817 44.626 345.021 44.626H345.94L347.165 44.1553L347.777 43.9983C347.777 43.7891 347.828 43.6322 347.93 43.5275C348.032 43.4229 348.185 43.3706 348.39 43.3706V43.2137C348.291 43.0197 348.239 42.8046 348.236 42.586C348.134 42.3767 348.108 42.2198 348.161 42.1152C348.212 42.0106 348.263 41.9583 348.314 41.9583H348.39L348.543 42.4291C348.645 42.9521 348.798 43.1091 349.002 42.8998L349.155 42.586C349.257 42.3767 349.41 42.2721 349.615 42.2721L349.921 42.586L350.227 42.2721L350.074 42.1152C350.074 42.0106 350.125 41.9583 350.227 41.9583L350.84 41.3306C351.35 40.7028 351.963 40.1274 352.677 39.6043C354.106 38.4535 355.638 37.5643 357.271 36.9366C357.781 36.4135 358.343 36.1519 358.955 36.1519C359.364 35.4196 359.976 34.6349 360.793 33.798C361.507 33.2749 362.018 32.9087 362.324 32.6995C362.528 32.281 362.783 32.0718 363.09 32.0718H363.243L363.549 31.7579C363.753 31.6533 363.906 31.5487 364.008 31.4441V30.6594C364.008 30.1363 364.059 29.7179 364.161 29.404C364.264 29.0902 364.519 28.9332 364.927 28.9332L365.54 28.3055C365.335 27.887 365.233 27.4162 365.233 26.8932H365.08C364.876 26.5793 364.774 26.2654 364.774 25.9516C364.468 25.4285 364.264 25.01 364.161 24.6962H363.702C363.6 25.01 363.345 25.2193 362.936 25.3239L362.783 25.6377C362.375 26.3701 362.018 26.9183 361.711 27.2844C361.405 27.6506 360.844 28.0963 360.027 28.6194C359.517 29.1425 359.159 29.7179 358.955 30.3456C358.853 30.6594 358.853 30.9733 358.955 31.2871L358.802 31.601H358.955C358.955 31.8102 359.006 31.9149 359.108 31.9149H359.261C359.466 32.0195 359.568 32.1492 359.568 32.3061C359.568 32.4631 359.415 32.5154 359.108 32.4631C358.853 32.4343 358.612 32.3246 358.42 32.1492C358.267 31.9923 358.139 31.9149 358.036 31.9149L357.577 32.3856C357.373 32.6995 357.169 32.8292 356.965 32.7769C356.76 32.7246 356.709 32.6472 356.811 32.5426L356.965 32.3856C357.067 32.1764 357.067 32.0718 356.965 32.0718L355.74 32.3856C355.638 32.4903 355.511 32.4903 355.358 32.3856C355.205 32.281 355.229 32.1764 355.433 32.0718L356.199 31.7579C356.199 31.6533 356.148 31.601 356.046 31.601C355.638 31.8102 355.229 31.8625 354.821 31.7579L354.055 31.601L353.902 31.4441C353.902 31.3395 353.953 31.2871 354.055 31.2871C354.464 31.3918 354.974 31.3395 355.586 31.1302L356.658 30.6594L357.883 29.2471L358.036 28.9332C358.445 28.0963 358.88 27.3367 359.339 26.6567C359.743 26.0387 360.233 25.4841 360.793 25.01L360.946 24.3823C361.15 23.9638 361.354 23.5977 361.558 23.2838C361.763 22.9699 362.018 22.5515 362.324 22.0284L362.783 21.4007C363.192 20.773 363.651 20.4591 364.161 20.4591L364.621 19.9883C364.723 19.8837 364.774 19.7268 364.774 19.5175L365.08 19.2037L364.927 19.0467C364.315 18.5237 364.008 18.0529 364.008 17.6344C363.906 16.9021 364.137 16.2743 364.698 15.7513C365.26 15.2282 365.821 14.9917 366.383 15.044C366.944 15.0963 367.377 15.2805 367.683 15.5943L367.99 15.9082C368.092 15.9082 368.143 15.9605 368.143 16.0651L368.755 16.379V16.8497C368.959 17.059 369.061 17.2159 369.061 17.3205C369.266 17.0067 369.572 16.6405 369.98 16.222L370.746 13.7112C370.746 13.2927 370.848 12.8742 371.052 12.4558L371.358 11.985V11.6711L371.818 9.78798H372.124L372.583 7.90484C372.686 7.54622 372.686 7.16496 372.583 6.80634L371.971 5.23706L371.665 3.98164V3.98164Z" fill="#334661"/>
<defs>
<clipPath id="clip0_94_6">
<rect width="49" height="49" fill="white" transform="translate(245)"/>
</clipPath>
</defs>
</svg>
