<svg width="522" height="106" viewBox="0 0 522 106" fill="none" xmlns="http://www.w3.org/2000/svg">
<g clip-path="url(#clip0_147_161)">
<path d="M40.7083 28.9361C44.2385 28.9361 47.1003 26.0372 47.1003 22.4611C47.1003 18.8851 44.2385 15.9862 40.7083 15.9862C37.1782 15.9862 34.3164 18.8851 34.3164 22.4611C34.3164 26.0372 37.1782 28.9361 40.7083 28.9361Z" fill="#334661"/>
<path d="M63.9569 44.9401C62.5513 44.1266 60.7606 44.6214 59.9575 46.0453C59.4846 46.8838 59.4626 47.8566 59.8091 48.6817L59.3476 49.5L54.9522 44.7815L51.3194 33.4944C50.9563 32.3665 49.9717 31.6209 48.8754 31.5178V31.4771H34.7026C34.6693 31.4625 34.6378 31.4454 34.6035 31.4319L26.0514 28.0367L25.3247 19.6374L26.8812 19.6438C27.4138 20.3599 28.2563 20.8266 29.2099 20.8307C30.8289 20.8372 32.1466 19.5133 32.1531 17.8735C32.1595 16.2335 30.8526 14.8987 29.2337 14.8921C28.2803 14.8882 27.4338 15.348 26.8957 16.0597L24.955 16.0518C24.5755 14.77 23.3493 13.8908 21.9812 14.011C20.7952 14.1164 19.8444 14.9447 19.5121 16.0295L18.7394 16.0263C18.2068 15.3102 17.3643 14.8434 16.4107 14.8394C14.792 14.8326 13.4742 16.1566 13.4676 17.7964C13.4609 19.4364 14.768 20.7713 16.3869 20.7778C17.3403 20.7816 18.1868 20.322 18.7249 19.6102L19.6091 19.6137L20.5353 30.3202C20.6298 31.4108 21.3258 32.3532 22.3321 32.7525L32.5266 36.7996C32.5314 36.8015 32.5364 36.8028 32.5415 36.8046V57.0051L25.4873 87.3925C25.0196 89.4077 26.2529 91.4257 28.2423 91.8996C30.2327 92.3734 32.2239 91.1234 32.6916 89.1088L39.8465 58.2888H41.5706L48.7254 89.1088C49.1931 91.1237 51.1846 92.3734 53.1748 91.8996C55.1643 91.4257 56.3976 89.4077 55.9298 87.3925L48.8754 57.0053V44.5006L49.7386 47.183C49.8688 47.5878 50.086 47.9583 50.3745 48.2679L56.3961 54.7326L55.763 55.8553C54.8853 55.9718 54.0694 56.4849 53.5964 57.3235C52.7934 58.7474 53.2818 60.5613 54.6875 61.3748C56.0931 62.1884 57.8838 61.6935 58.6869 60.2696C59.1599 59.4311 59.1818 58.4584 58.8353 57.6333L59.1985 56.9893C60.1218 57.1851 61.0613 56.9116 61.7371 56.2658C62.8685 55.1842 62.9296 53.3865 61.8845 52.2272L62.8815 50.4595C63.7591 50.343 64.575 49.8297 65.048 48.9912C65.8511 47.5674 65.3625 45.7538 63.9569 44.9401Z" fill="#334661"/>
</g>
<path d="M183.767 67.7303C185.357 67.2508 187.066 67.3782 188.55 68.0744L189.923 48.4668L204.701 32.4357C206.503 30.48 206.277 27.5222 204.195 25.8293C202.113 24.1362 198.964 24.3487 197.161 26.3044L181.287 43.5247C180.576 44.2963 180.152 45.265 180.081 46.2831L179.339 56.8869L153.614 56.7373C150.855 56.7211 148.604 58.8088 148.587 61.4L148.517 72.0566C148.5 74.6478 150.723 76.7612 153.481 76.7774L158.823 76.8086L155.199 74.3705L169.462 80.9554C170.329 81.356 171.325 81.4218 172.238 81.1463L186.848 76.7399C188.802 76.1504 189.878 74.1844 189.25 72.3488C188.622 70.5129 186.529 69.5025 184.575 70.0923L171.394 74.0676L158.479 68.105L170.896 71.6127L183.767 67.7303Z" fill="#334661"/>
<path d="M136.3 76.5097C140.911 76.5097 144.649 72.999 144.649 68.6684C144.649 64.3377 140.911 60.827 136.3 60.827C131.689 60.827 127.951 64.3377 127.951 68.6684C127.951 72.999 131.689 76.5097 136.3 76.5097Z" fill="#334661"/>
<path d="M209.447 76.6512C219.168 76.6512 227.048 69.2497 227.048 60.1194C227.048 50.9892 219.168 43.5876 209.447 43.5876C199.725 43.5876 191.845 50.9892 191.845 60.1194C191.845 69.2497 199.725 76.6512 209.447 76.6512Z" fill="#334661"/>
<g clip-path="url(#clip1_147_161)">
<path d="M299.119 38.5862C296.757 35.6944 292.5 35.2666 289.611 37.6263C286.72 39.9868 286.29 44.2436 288.651 47.1342C291.012 50.0252 295.269 50.4545 298.159 48.0942C301.049 45.7338 301.479 41.4768 299.119 38.5862Z" fill="#334661"/>
<path d="M362.201 70.5204C362.199 70.5204 362.197 70.5204 362.194 70.5204C336.475 70.5802 331.408 70.5948 326.527 70.5948L333.95 61.4918L357.239 56.7324C359.345 56.3019 360.704 54.2449 360.274 52.1384C359.843 50.0317 357.787 48.6715 355.68 49.1032L331.031 54.1407C330.151 54.3205 329.361 54.799 328.793 55.4949L318.353 68.2982L323.182 58.6401L323.507 51.845L326.099 52.8426C327.251 50.9323 329.006 50.7766 330.29 50.5143L337.761 48.9874L321.274 42.6416C318.802 41.6891 316.114 43.4388 315.987 46.0891L315.554 55.1443L309.907 48.6019L311.953 32.8941C312.241 30.6796 310.032 28.9736 307.962 29.8099L297.089 34.2096C298.611 34.7721 299.974 35.7315 301.03 37.0252C301.413 37.4936 301.744 37.992 302.024 38.513L305.515 37.1002L304.307 46.3785L296.139 53.2047L300.642 55.0066L288.902 54.171L289.686 51.0755C288.565 50.5025 287.559 49.7007 286.739 48.6959C285.955 47.737 285.4 46.6664 285.061 45.5494L282.381 56.1317C281.934 57.8964 283.196 59.6394 285.015 59.7622L302.346 60.8296L298.291 61.9088L305.424 70.644L279.89 70.7109C278.317 70.7143 277.045 71.9922 277.049 73.565C277.052 75.1358 278.327 76.4066 279.896 76.4066C279.899 76.4066 279.901 76.4066 279.903 76.4066C283.52 76.3982 358.305 76.2256 362.207 76.2167C363.78 76.2129 365.052 74.935 365.049 73.3622C365.045 71.7913 363.771 70.5204 362.201 70.5204Z" fill="#334661"/>
</g>
<path d="M490.132 75.0834H481.299V101.583H472.465V75.0834H463.102L456.3 83.6075L466.768 94.0309L460.496 100.303L450.073 89.835C448.527 88.3334 447.644 86.2575 447.511 84.0934C447.379 81.9292 448.041 79.765 449.41 78.0867L451.795 75.0834H445.965L454.799 57.4167V44.1667C452.06 46.2425 449.852 48.8925 448.306 51.94C446.76 55.0317 445.965 58.3884 445.965 61.8334H437.132C437.133 53.6341 440.391 45.771 446.188 39.9733C451.986 34.1755 459.849 30.9179 468.049 30.9167C473.923 30.9167 479.532 28.5759 483.684 24.4684C487.791 20.3167 490.132 14.7075 490.132 8.83337H498.965C498.965 14.6634 497.287 20.405 494.151 25.3075C491.032 30.2465 486.575 34.1981 481.299 36.7025V57.4167L490.132 75.0834ZM476.882 17.6667C476.882 19.4334 476.352 21.1117 475.38 22.5692C474.409 24.0267 473.039 25.175 471.449 25.8375C469.832 26.5006 468.054 26.6699 466.341 26.3241C464.627 25.9782 463.055 25.1327 461.821 23.8942C460.584 22.6575 459.745 21.1117 459.392 19.3892C459.039 17.6667 459.215 15.9 459.878 14.31C460.54 12.6759 461.689 11.3067 463.146 10.335C464.604 9.36337 466.282 8.83337 468.049 8.83337C470.389 8.83337 472.642 9.76087 474.276 11.4392C475.954 13.0734 476.882 15.3259 476.882 17.6667Z" fill="#334661"/>
<defs>
<clipPath id="clip0_147_161">
<rect width="77" height="78" fill="white" transform="translate(0.951172 14)"/>
</clipPath>
<clipPath id="clip1_147_161">
<rect width="88" height="88" fill="white" transform="translate(277.049 9)"/>
</clipPath>
</defs>
</svg>
