<svg width="223" height="70" viewBox="0 0 223 70" fill="none" xmlns="http://www.w3.org/2000/svg">
<path d="M216.031 69.6875H6.96875C3.13594 69.6875 0 66.5516 0 62.7188V6.96875C0 3.13594 3.13594 0 6.96875 0H216.031C219.864 0 223 3.13594 223 6.96875V62.7188C223 66.5516 219.864 69.6875 216.031 69.6875Z" fill="#334661"/>
<path d="M79.0953 17.9446C79.0953 19.861 78.5726 21.429 77.3531 22.4743C76.3078 23.3454 74.7398 23.868 72.6492 23.868C71.6039 23.868 70.7328 23.868 70.0359 23.6938V12.8922C70.907 12.718 71.9523 12.718 73.1718 12.718C75.0882 12.718 76.482 13.0665 77.5273 13.9376C78.3984 14.8086 79.0953 16.2024 79.0953 17.9446ZM77.1789 17.9446C77.1789 16.7251 76.8304 15.6797 76.1335 14.9829C75.4367 14.286 74.3913 13.9376 73.1718 13.9376C72.6492 13.9376 72.1265 13.9376 71.7781 14.1118V22.3001C71.9523 22.3001 72.4749 22.3001 72.9976 22.3001C74.3913 22.3001 75.4367 21.9516 76.1335 21.2547C76.8304 20.5579 77.1789 19.3383 77.1789 17.9446Z" fill="#EDFDFB"/>
<path d="M88.8516 19.6866C88.8516 20.9062 88.5031 21.9515 87.8063 22.6483C87.1094 23.5194 86.0641 23.8679 84.8445 23.8679C83.625 23.8679 82.7539 23.5194 82.057 22.6483C81.3602 21.9515 81.0117 20.9062 81.0117 19.6866C81.0117 18.4671 81.3602 17.4218 82.057 16.7249C82.7539 15.8538 83.7992 15.5054 85.0188 15.5054C86.2383 15.5054 87.1094 15.8538 87.8063 16.7249C88.5031 17.4218 88.8516 18.4671 88.8516 19.6866ZM87.1094 19.6866C87.1094 18.9897 86.9352 18.2929 86.5867 17.7702C86.2383 17.0733 85.7156 16.8991 85.0188 16.8991C84.3219 16.8991 83.7992 17.2476 83.4508 17.7702C83.1023 18.2929 82.9281 18.9897 82.9281 19.6866C82.9281 20.3835 83.1023 21.0804 83.4508 21.603C83.7992 22.2999 84.3219 22.4741 85.0188 22.4741C85.7156 22.4741 86.2383 22.1257 86.5867 21.4288C86.9352 21.0804 87.1094 20.3835 87.1094 19.6866Z" fill="#EDFDFB"/>
<path d="M102.266 15.6797L99.8274 23.6937H98.2594L97.2141 20.2094C96.8656 19.3383 96.6914 18.4672 96.5172 17.5961C96.343 18.4672 96.1688 19.3383 95.8203 20.2094L94.775 23.6937H93.207L90.5938 15.6797H92.3359L93.207 19.5125C93.3813 20.3836 93.5555 21.2547 93.7297 22.1258C93.9039 21.4289 94.0781 20.5578 94.4266 19.5125L95.4719 15.6797H96.8656L97.9109 19.3383C98.2594 20.2094 98.4336 21.0805 98.6078 21.9516C98.782 21.0805 98.9563 20.2094 99.1305 19.3383L100.176 15.6797H102.266Z" fill="#EDFDFB"/>
<path d="M111.326 23.6938H109.584V19.1641C109.584 17.7704 109.061 17.0735 108.016 17.0735C107.493 17.0735 107.145 17.2477 106.796 17.5961C106.448 17.9446 106.273 18.4672 106.273 18.9899V23.6938H104.531V17.9446C104.531 17.2477 104.531 16.5508 104.531 15.6797H106.099V16.8993C106.273 16.5508 106.622 16.2024 106.97 15.854C107.493 15.5055 108.016 15.3313 108.538 15.3313C109.235 15.3313 109.932 15.5055 110.455 16.0282C111.152 16.5508 111.326 17.4219 111.326 18.6415V23.6938Z" fill="#EDFDFB"/>
<path d="M116.204 23.6936H114.462V12.021H116.204V23.6936Z" fill="#EDFDFB"/>
<path d="M126.657 19.6866C126.657 20.9062 126.309 21.9515 125.612 22.6483C124.915 23.5194 123.869 23.8679 122.65 23.8679C121.43 23.8679 120.559 23.5194 119.862 22.6483C119.166 21.9515 118.817 20.9062 118.817 19.6866C118.817 18.4671 119.166 17.4218 119.862 16.7249C120.559 16.028 121.605 15.5054 122.824 15.5054C124.044 15.5054 124.915 15.8538 125.612 16.7249C126.309 17.4218 126.657 18.4671 126.657 19.6866ZM124.915 19.6866C124.915 18.9897 124.741 18.2929 124.392 17.7702C124.044 17.0733 123.521 16.8991 122.824 16.8991C122.127 16.8991 121.605 17.2476 121.256 17.7702C120.908 18.2929 120.734 18.9897 120.734 19.6866C120.734 20.3835 120.908 21.0804 121.256 21.603C121.605 22.2999 122.127 22.4741 122.824 22.4741C123.521 22.4741 124.044 22.1257 124.392 21.4288C124.741 21.0804 124.915 20.3835 124.915 19.6866Z" fill="#EDFDFB"/>
<path d="M135.194 23.6937H133.626L133.451 22.8226C132.929 23.5194 132.058 23.8679 131.187 23.8679C130.49 23.8679 129.793 23.6937 129.444 23.171C129.096 22.6483 128.748 22.1257 128.748 21.603C128.748 20.5577 129.096 19.8608 129.967 19.3382C130.838 18.8155 131.884 18.6413 133.451 18.6413V18.4671C133.451 17.4218 132.929 16.8991 131.884 16.8991C131.012 16.8991 130.49 17.0733 129.793 17.4218L129.444 16.2022C130.141 15.6796 131.012 15.5054 132.232 15.5054C134.323 15.5054 135.368 16.5507 135.368 18.8155V21.7772C135.194 22.6483 135.194 23.171 135.194 23.6937ZM133.451 20.9062V19.6866C131.535 19.6866 130.49 20.2093 130.49 21.2546C130.49 21.603 130.664 21.9515 130.838 22.1257C131.012 22.2999 131.361 22.4741 131.709 22.4741C132.058 22.4741 132.406 22.2999 132.755 22.1257C133.103 21.9515 133.277 21.603 133.451 21.2546C133.451 21.2546 133.451 21.0804 133.451 20.9062Z" fill="#EDFDFB"/>
<path d="M145.299 23.6938H143.731V22.4742C143.208 23.5195 142.337 23.868 141.117 23.868C140.072 23.868 139.375 23.5195 138.678 22.8227C137.981 22.1258 137.807 21.0805 137.807 19.8609C137.807 18.6414 138.156 17.5961 138.852 16.725C139.549 16.0281 140.42 15.6797 141.292 15.6797C142.337 15.6797 143.034 16.0281 143.556 16.725V12.1953H145.299V21.6031C145.299 22.3 145.299 22.9969 145.299 23.6938ZM143.556 20.3836V18.9898C143.556 18.8156 143.556 18.6414 143.556 18.4672C143.382 18.1188 143.208 17.7703 142.859 17.4219C142.511 17.0734 142.163 17.0734 141.64 17.0734C140.943 17.0734 140.42 17.4219 140.072 17.9445C139.724 18.4672 139.549 19.1641 139.549 20.0352C139.549 20.9063 139.724 21.4289 140.072 21.9516C140.42 22.4742 140.943 22.8227 141.64 22.8227C142.163 22.8227 142.685 22.6484 143.034 22.1258C143.382 21.4289 143.556 20.9063 143.556 20.3836Z" fill="#EDFDFB"/>
<path d="M160.456 19.6866C160.456 20.9062 160.107 21.9515 159.41 22.6483C158.713 23.5194 157.668 23.8679 156.449 23.8679C155.229 23.8679 154.358 23.5194 153.661 22.6483C152.964 21.9515 152.616 20.9062 152.616 19.6866C152.616 18.4671 152.964 17.4218 153.661 16.7249C154.358 15.8538 155.403 15.5054 156.623 15.5054C157.842 15.5054 158.713 15.8538 159.41 16.7249C160.107 17.4218 160.456 18.4671 160.456 19.6866ZM158.539 19.6866C158.539 18.9897 158.365 18.2929 158.016 17.7702C157.668 17.0733 157.145 16.8991 156.449 16.8991C155.752 16.8991 155.229 17.2476 154.881 17.7702C154.532 18.2929 154.358 18.9897 154.358 19.6866C154.358 20.3835 154.532 21.0804 154.881 21.603C155.229 22.2999 155.752 22.4741 156.449 22.4741C157.145 22.4741 157.668 22.1257 158.016 21.4288C158.365 21.0804 158.539 20.3835 158.539 19.6866Z" fill="#EDFDFB"/>
<path d="M170.037 23.6938H168.295V19.1641C168.295 17.7704 167.773 17.0735 166.727 17.0735C166.205 17.0735 165.856 17.2477 165.508 17.5961C165.159 17.9446 164.985 18.4672 164.985 18.9899V23.6938H163.243V17.9446C163.243 17.2477 163.243 16.5508 163.243 15.6797H164.811V16.8993C164.985 16.5508 165.334 16.2024 165.682 15.854C166.205 15.5055 166.727 15.3313 167.25 15.3313C167.947 15.3313 168.644 15.5055 169.166 16.0282C169.863 16.5508 170.037 17.4219 170.037 18.6415V23.6938Z" fill="#EDFDFB"/>
<path d="M181.884 17.0733H179.968V20.9062C179.968 21.9515 180.316 22.2999 181.013 22.2999C181.362 22.2999 181.536 22.2999 181.884 22.2999V23.6937C181.536 23.8679 181.013 23.8679 180.491 23.8679C179.794 23.8679 179.271 23.6937 178.923 23.171C178.574 22.8226 178.4 21.9515 178.4 21.0804V17.0733H177.18V15.6796H178.4V14.2858L180.142 13.7632V15.6796H182.059V17.0733H181.884Z" fill="#EDFDFB"/>
<path d="M191.292 23.6936H189.55V19.164C189.55 17.7702 189.027 17.0733 187.982 17.0733C187.111 17.0733 186.588 17.4218 186.24 18.2929C186.24 18.4671 186.24 18.6413 186.24 18.9897V23.6936H184.498V12.021H186.24V16.8991C186.762 16.028 187.633 15.5054 188.679 15.5054C189.376 15.5054 190.073 15.6796 190.421 16.2022C190.944 16.7249 191.292 17.7702 191.292 18.8155V23.6936Z" fill="#EDFDFB"/>
<path d="M200.874 19.3383C200.874 19.6867 200.874 19.8609 200.874 20.2094H195.648C195.648 21.0805 195.996 21.6031 196.345 21.9516C196.867 22.3 197.39 22.4742 198.087 22.4742C198.958 22.4742 199.655 22.3 200.177 22.1258L200.526 23.3453C199.829 23.6938 198.958 23.868 197.913 23.868C196.693 23.868 195.648 23.5195 194.951 22.8227C194.254 22.1258 193.906 21.0805 193.906 19.8609C193.906 18.6414 194.254 17.5961 194.951 16.8992C195.648 16.0281 196.519 15.6797 197.738 15.6797C198.958 15.6797 199.829 16.0281 200.352 16.8992C200.7 17.4219 200.874 18.293 200.874 19.3383ZM199.306 18.8156C199.306 18.293 199.132 17.7703 198.958 17.4219C198.609 16.8992 198.261 16.725 197.564 16.725C197.041 16.725 196.519 16.8992 196.17 17.4219C195.822 17.7703 195.648 18.293 195.648 18.8156H199.306Z" fill="#EDFDFB"/>
<path d="M19.6758 13.1892C19.8809 13.0642 20.1133 12.999 20.3496 13C20.586 13.001 20.8179 13.0682 21.022 13.1949L42.139 26.3098L35.6044 32.5705L19 16.6607V14.4333C18.9998 14.1809 19.0622 13.933 19.1809 13.7145C19.2995 13.4961 19.4703 13.3149 19.6758 13.1892V13.1892ZM19 20.5192V48.4804L33.5931 34.4998L19 20.5192ZM19 52.3389V54.5663C18.9999 54.8185 19.0624 55.0662 19.181 55.2845C19.2996 55.5028 19.4702 55.6839 19.6756 55.8095C19.881 55.9351 20.1139 56.0008 20.3508 56C20.5877 55.9991 20.8201 55.9318 21.0247 55.8046L42.139 42.6898L35.6044 36.429L19 52.3389V52.3389ZM44.5811 41.1733L53.3316 35.7382C53.535 35.612 53.7037 35.4312 53.821 35.2139C53.9383 34.9966 54 34.7504 54 34.4998C54 34.2492 53.9383 34.0029 53.821 33.7856C53.7037 33.5683 53.535 33.3876 53.3316 33.2614L44.5811 27.8262L37.6157 34.4998L44.5811 41.1733Z" fill="#EDFDFB"/>
<path d="M70 32.2531C70.8051 32.1536 71.6678 32.084 72.5879 32.0442C73.5273 31.9846 74.5145 31.9547 75.5497 31.9547C76.7957 31.9547 77.9076 32.1139 78.8852 32.4321C79.8629 32.7503 80.6872 33.1879 81.3581 33.7449C82.0291 34.3018 82.5371 34.9781 82.8821 35.7737C83.2272 36.5494 83.3997 37.3947 83.3997 38.3097C83.3997 39.4235 83.1889 40.418 82.7671 41.2932C82.3646 42.1485 81.7895 42.8745 81.0418 43.4712C80.3134 44.0679 79.4316 44.5254 78.3964 44.8436C77.3612 45.142 76.2206 45.2912 74.9746 45.2912C74.1694 45.2912 73.4218 45.2613 72.7317 45.2016V53.0782H70V32.2531ZM75.3196 42.9342C77.0449 42.9342 78.3676 42.5463 79.2878 41.7706C80.2271 40.975 80.6968 39.9009 80.6968 38.5484C80.6968 37.2555 80.2463 36.2311 79.3453 35.4753C78.4635 34.7195 77.1791 34.3416 75.4922 34.3416C74.9746 34.3416 74.4857 34.3515 74.0257 34.3714C73.5656 34.3913 73.1343 34.4211 72.7317 34.4609V42.785C73.0384 42.8248 73.4026 42.8645 73.8244 42.9043C74.2653 42.9242 74.7637 42.9342 75.3196 42.9342Z" fill="#EDFDFB"/>
<path d="M88.8647 47.9465C88.8647 49.0206 89.0756 49.8162 89.4973 50.3333C89.9382 50.8505 90.5421 51.1091 91.3089 51.1091C91.6731 51.1091 92.0277 51.0693 92.3728 50.9897C92.7179 50.8903 93.0246 50.7809 93.293 50.6615L93.9256 52.8395C93.5805 52.9986 93.1492 53.1379 92.6316 53.2572C92.1332 53.3765 91.5772 53.4362 90.9638 53.4362C90.2929 53.4362 89.6698 53.3368 89.0948 53.1379C88.5388 52.939 88.05 52.6307 87.6283 52.213C87.2065 51.7953 86.871 51.2582 86.6218 50.6019C86.3918 49.9455 86.2768 49.1499 86.2768 48.215V31H88.8647V47.9465Z" fill="#EDFDFB"/>
<path d="M94.9335 45.4105C94.9335 44.2569 95.1061 43.1828 95.4511 42.1883C95.7962 41.1739 96.2754 40.2987 96.8889 39.5628C97.5215 38.8268 98.2691 38.25 99.1317 37.8323C100.014 37.4146 100.972 37.2058 102.007 37.2058C102.87 37.2058 103.646 37.3649 104.336 37.6831C105.046 37.9815 105.659 38.3594 106.177 38.8169V37.5638H108.535V49.3189C108.535 50.0748 108.707 50.572 109.052 50.8107C109.416 51.0295 109.809 51.1389 110.231 51.1389L109.685 53.2274C107.844 53.2274 106.733 52.4516 106.349 50.9002C106.119 51.2184 105.851 51.5367 105.544 51.8549C105.257 52.1533 104.921 52.4218 104.538 52.6605C104.154 52.8992 103.723 53.0881 103.244 53.2274C102.764 53.3666 102.237 53.4362 101.662 53.4362C100.723 53.4362 99.841 53.2473 99.0167 52.8693C98.2116 52.4914 97.5023 51.9544 96.8889 51.2582C96.2946 50.5621 95.8154 49.7267 95.4511 48.7521C95.1061 47.7575 94.9335 46.6437 94.9335 45.4105ZM102.237 51.0494C102.966 51.0494 103.656 50.8704 104.308 50.5123C104.959 50.1543 105.506 49.6869 105.947 49.1101V40.786C105.429 40.4081 104.854 40.1097 104.221 39.8909C103.608 39.6523 102.956 39.5329 102.266 39.5329C101.576 39.5329 100.943 39.6722 100.368 39.9506C99.7931 40.2291 99.2947 40.6269 98.873 41.144C98.4704 41.6413 98.1541 42.2479 97.924 42.964C97.694 43.68 97.579 44.4657 97.579 45.321C97.579 46.1564 97.694 46.9321 97.924 47.6481C98.1541 48.3443 98.48 48.951 98.9017 49.4681C99.3234 49.9654 99.8123 50.3532 100.368 50.6317C100.943 50.9102 101.566 51.0494 102.237 51.0494Z" fill="#EDFDFB"/>
<path d="M113.499 60C112.924 60 112.416 59.9403 111.975 59.821C111.554 59.7016 111.218 59.5624 110.969 59.4033L111.544 57.1656C111.774 57.3049 112.052 57.4242 112.378 57.5237C112.723 57.6231 113.116 57.6728 113.557 57.6728C113.959 57.6728 114.333 57.6132 114.678 57.4938C115.042 57.3745 115.387 57.1656 115.713 56.8673C116.039 56.5689 116.346 56.1612 116.634 55.644C116.94 55.1269 117.237 54.4805 117.525 53.7047L118.186 51.9146H116.806L110.969 38.2798L113.269 37.2058L118.848 50.1245L123.19 37.3251L125.576 38.2798L120.084 53.8539C119.662 55.0473 119.212 56.0319 118.733 56.8076C118.273 57.6032 117.774 58.2397 117.237 58.7171C116.701 59.1944 116.116 59.5226 115.483 59.7016C114.87 59.9006 114.209 60 113.499 60Z" fill="#EDFDFB"/>
<path d="M136.74 48.9311C137.43 49.5278 138.207 50.0151 139.069 50.393C139.932 50.7709 140.938 50.9599 142.088 50.9599C143.469 50.9599 144.561 50.6615 145.367 50.0648C146.172 49.4681 146.574 48.6626 146.574 47.6481C146.574 47.2305 146.517 46.8426 146.402 46.4846C146.287 46.1265 146.057 45.7884 145.712 45.4702C145.386 45.132 144.916 44.8038 144.303 44.4856C143.708 44.1475 142.932 43.7894 141.973 43.4115C140.938 42.9938 140.056 42.5861 139.328 42.1883C138.619 41.7706 138.044 41.323 137.603 40.8457C137.162 40.3484 136.846 39.8114 136.654 39.2346C136.462 38.6379 136.366 37.9616 136.366 37.2058C136.366 36.4698 136.51 35.7737 136.798 35.1173C137.104 34.4609 137.545 33.894 138.12 33.4167C138.715 32.9194 139.433 32.5315 140.277 32.2531C141.14 31.9746 142.117 31.8354 143.21 31.8354C144.398 31.8354 145.462 31.9647 146.402 32.2232C147.341 32.4619 148.271 32.81 149.191 33.2675L148.184 35.6842C147.533 35.2864 146.766 34.9582 145.884 34.6996C145.021 34.4211 144.111 34.2819 143.152 34.2819C141.887 34.2819 140.89 34.5405 140.162 35.0576C139.433 35.5549 139.069 36.2212 139.069 37.0566C139.069 37.4544 139.117 37.8124 139.213 38.1307C139.328 38.429 139.539 38.7274 139.846 39.0257C140.171 39.3042 140.612 39.5926 141.168 39.8909C141.743 40.1893 142.501 40.5175 143.44 40.8755C144.552 41.3131 145.491 41.7606 146.258 42.2181C147.025 42.6756 147.638 43.1629 148.098 43.68C148.558 44.1972 148.884 44.7541 149.076 45.3508C149.287 45.9475 149.392 46.6039 149.392 47.32C149.392 48.2946 149.21 49.1598 148.846 49.9156C148.482 50.6715 147.974 51.3179 147.322 51.8549C146.689 52.3721 145.922 52.7699 145.021 53.0484C144.12 53.3069 143.143 53.4362 142.088 53.4362C140.689 53.4362 139.414 53.2473 138.264 52.8693C137.114 52.4715 136.146 51.9544 135.36 51.3179L136.74 48.9311Z" fill="#EDFDFB"/>
<path d="M154.32 33.2377H156.304V38.1307H160.444V40.4578H156.304V47.9465C156.304 48.5233 156.361 49.0106 156.476 49.4084C156.61 49.8062 156.783 50.1245 156.994 50.3632C157.205 50.6019 157.454 50.7809 157.741 50.9002C158.048 50.9997 158.364 51.0494 158.69 51.0494C159.17 51.0494 159.62 50.9698 160.042 50.8107C160.464 50.6516 160.866 50.4626 161.25 50.2438L161.968 52.392C161.585 52.6307 161.067 52.8594 160.416 53.0782C159.764 53.3169 159.083 53.4362 158.374 53.4362C156.936 53.4362 155.796 52.9489 154.952 51.9743C154.128 50.9997 153.716 49.5874 153.716 47.7377V40.4578H151.128V38.1307H153.773L154.32 33.2377Z" fill="#EDFDFB"/>
<path d="M175.107 45.321C175.107 44.5453 174.983 43.8093 174.733 43.1132C174.503 42.417 174.168 41.8104 173.727 41.2932C173.305 40.7761 172.797 40.3683 172.203 40.07C171.628 39.7517 170.995 39.5926 170.305 39.5926C168.791 39.5926 167.612 40.1097 166.768 41.144C165.925 42.1783 165.503 43.5508 165.503 45.2613C165.503 46.037 165.618 46.7829 165.848 47.499C166.097 48.1951 166.433 48.8117 166.855 49.3488C167.296 49.8659 167.804 50.2836 168.379 50.6019C168.973 50.9002 169.615 51.0494 170.305 51.0494C171.053 51.0494 171.724 50.9102 172.318 50.6317C172.912 50.3532 173.411 49.9654 173.813 49.4681C174.235 48.951 174.551 48.3443 174.762 47.6481C174.992 46.952 175.107 46.1763 175.107 45.321ZM162.858 45.321C162.858 44.0679 163.049 42.9441 163.433 41.9496C163.816 40.9352 164.334 40.0799 164.986 39.3837C165.657 38.6876 166.443 38.1505 167.343 37.7726C168.264 37.3947 169.251 37.2058 170.305 37.2058C171.34 37.2058 172.308 37.3947 173.209 37.7726C174.13 38.1505 174.925 38.6876 175.596 39.3837C176.267 40.0799 176.794 40.9252 177.178 41.9198C177.561 42.9143 177.753 44.0281 177.753 45.2613C177.753 46.4945 177.561 47.6183 177.178 48.6327C176.813 49.6272 176.296 50.4825 175.625 51.1986C174.954 51.9146 174.158 52.4715 173.238 52.8693C172.337 53.2473 171.36 53.4362 170.305 53.4362C169.232 53.4362 168.235 53.2373 167.315 52.8395C166.414 52.4417 165.628 51.8848 164.957 51.1687C164.305 50.4527 163.787 49.5974 163.404 48.6029C163.04 47.6084 162.858 46.5144 162.858 45.321Z" fill="#EDFDFB"/>
<path d="M189.302 40.1595C188.938 40.0003 188.507 39.9208 188.008 39.9208C187.472 39.9208 186.944 40.0401 186.427 40.2788C185.928 40.5175 185.478 40.8755 185.075 41.3529C184.692 41.8302 184.376 42.4468 184.126 43.2027C183.896 43.9386 183.781 44.8138 183.781 45.8282V53.0782H181.193V37.5638H183.695V40.9352C183.868 40.4578 184.098 39.9904 184.385 39.5329C184.673 39.0754 185.008 38.6776 185.392 38.3395C185.794 38.0014 186.254 37.7329 186.772 37.534C187.289 37.3152 187.865 37.2058 188.497 37.2058C188.785 37.2058 189.063 37.2257 189.331 37.2654C189.619 37.2853 189.868 37.3251 190.079 37.3848L189.302 40.1595Z" fill="#EDFDFB"/>
<path d="M193.447 46.4249C193.62 47.8769 194.108 49.0106 194.913 49.8261C195.719 50.6416 196.783 51.0494 198.105 51.0494C198.968 51.0494 199.744 50.9599 200.434 50.7809C201.125 50.582 201.786 50.3333 202.418 50.035L203.022 52.3323C202.332 52.6704 201.556 52.939 200.693 53.1379C199.831 53.3368 198.862 53.4362 197.789 53.4362C196.715 53.4362 195.747 53.2572 194.885 52.8992C194.022 52.5213 193.284 51.9942 192.671 51.3179C192.076 50.6217 191.616 49.7764 191.29 48.7819C190.965 47.7675 190.802 46.6139 190.802 45.321C190.802 44.1674 190.965 43.0933 191.29 42.0988C191.616 41.1043 192.076 40.249 192.671 39.5329C193.265 38.797 193.974 38.2301 194.798 37.8323C195.623 37.4146 196.543 37.2058 197.559 37.2058C198.632 37.2058 199.572 37.3947 200.377 37.7726C201.182 38.1505 201.853 38.6677 202.39 39.3241C202.927 39.9805 203.329 40.7462 203.597 41.6214C203.866 42.4966 204 43.4215 204 44.3961C204 45.0922 203.971 45.7685 203.914 46.4249H193.447ZM197.501 39.5329C196.37 39.5329 195.441 39.9307 194.712 40.7263C194.003 41.5219 193.572 42.6955 193.418 44.2469H201.613C201.613 42.7353 201.249 41.5717 200.521 40.7562C199.792 39.9407 198.786 39.5329 197.501 39.5329Z" fill="#EDFDFB"/>
</svg>
