<svg width="44" height="44" viewBox="0 0 44 44" fill="none" xmlns="http://www.w3.org/2000/svg">
<path fill-rule="evenodd" clip-rule="evenodd" d="M6.875 33C6.875 32.6353 7.01987 32.2856 7.27773 32.0277C7.53559 31.7699 7.88533 31.625 8.25 31.625H35.75C36.1147 31.625 36.4644 31.7699 36.7223 32.0277C36.9801 32.2856 37.125 32.6353 37.125 33C37.125 33.3647 36.9801 33.7144 36.7223 33.9723C36.4644 34.2301 36.1147 34.375 35.75 34.375H8.25C7.88533 34.375 7.53559 34.2301 7.27773 33.9723C7.01987 33.7144 6.875 33.3647 6.875 33ZM6.875 22C6.875 21.6353 7.01987 21.2856 7.27773 21.0277C7.53559 20.7699 7.88533 20.625 8.25 20.625H35.75C36.1147 20.625 36.4644 20.7699 36.7223 21.0277C36.9801 21.2856 37.125 21.6353 37.125 22C37.125 22.3647 36.9801 22.7144 36.7223 22.9723C36.4644 23.2301 36.1147 23.375 35.75 23.375H8.25C7.88533 23.375 7.53559 23.2301 7.27773 22.9723C7.01987 22.7144 6.875 22.3647 6.875 22ZM6.875 11C6.875 10.6353 7.01987 10.2856 7.27773 10.0277C7.53559 9.76987 7.88533 9.625 8.25 9.625H35.75C36.1147 9.625 36.4644 9.76987 36.7223 10.0277C36.9801 10.2856 37.125 10.6353 37.125 11C37.125 11.3647 36.9801 11.7144 36.7223 11.9723C36.4644 12.2301 36.1147 12.375 35.75 12.375H8.25C7.88533 12.375 7.53559 12.2301 7.27773 11.9723C7.01987 11.7144 6.875 11.3647 6.875 11V11Z" fill="#334661"/>
</svg>
